<svg width="20" height="20" viewBox="0 0 20 20" fill="none" xmlns="http://www.w3.org/2000/svg">
<g clip-path="url(#clip0_693_6830)">
<path d="M9.915 19.33C14.9767 19.33 19.08 15.2267 19.08 10.165C19.08 5.10331 14.9767 1 9.915 1C4.85331 1 0.75 5.10331 0.75 10.165C0.75 15.2267 4.85331 19.33 9.915 19.33Z" stroke="white" stroke-width="1.5" stroke-linecap="round" stroke-linejoin="round"/>
<path d="M7.57495 7.49999C7.77087 6.94304 8.15758 6.47341 8.66658 6.17426C9.17558 5.87512 9.77403 5.76577 10.3559 5.86558C10.9378 5.96539 11.4656 6.26792 11.8458 6.71959C12.2261 7.17126 12.4342 7.74292 12.4333 8.33332C12.4333 9.99999 9.93328 10.8333 9.93328 10.8333" stroke="white" stroke-width="1.5" stroke-linecap="round" stroke-linejoin="round"/>
<path d="M10 14.1665H10.0083" stroke="white" stroke-width="1.5" stroke-linecap="round" stroke-linejoin="round"/>
</g>
<defs>
<clipPath id="clip0_693_6830">
<rect width="20" height="20" fill="white"/>
</clipPath>
</defs>
</svg>
