<svg width="32" height="32" viewBox="0 0 32 32" fill="none" xmlns="http://www.w3.org/2000/svg">
<rect width="32" height="32" rx="16" fill="#28A745"/>
<path d="M12.915 17.9443V11.0469H14.959V17.9443C14.959 18.6097 14.8132 19.1816 14.5215 19.6602C14.2298 20.1341 13.8311 20.4987 13.3252 20.7539C12.8239 21.0091 12.2588 21.1367 11.6299 21.1367C10.9782 21.1367 10.4017 21.0273 9.90039 20.8086C9.39909 20.5898 9.00488 20.2549 8.71777 19.8037C8.43066 19.348 8.28711 18.7715 8.28711 18.0742H10.3447C10.3447 18.4388 10.3949 18.7282 10.4951 18.9424C10.5999 19.1566 10.748 19.3092 10.9395 19.4004C11.1309 19.4915 11.361 19.5371 11.6299 19.5371C11.8896 19.5371 12.1152 19.4756 12.3066 19.3525C12.498 19.2295 12.6462 19.0495 12.751 18.8125C12.8604 18.5755 12.915 18.2861 12.915 17.9443ZM21.8906 18.3955C21.8906 18.2178 21.8633 18.0583 21.8086 17.917C21.7585 17.7712 21.6628 17.639 21.5215 17.5205C21.3802 17.3975 21.182 17.2767 20.9268 17.1582C20.6715 17.0397 20.3411 16.9167 19.9355 16.7891C19.4844 16.6432 19.056 16.4792 18.6504 16.2969C18.2493 16.1146 17.8939 15.9027 17.584 15.6611C17.2786 15.415 17.0371 15.1302 16.8594 14.8066C16.6862 14.4831 16.5996 14.1071 16.5996 13.6787C16.5996 13.264 16.6908 12.888 16.873 12.5508C17.0553 12.209 17.3105 11.9173 17.6387 11.6758C17.9668 11.4297 18.3542 11.2406 18.8008 11.1084C19.252 10.9762 19.7464 10.9102 20.2842 10.9102C21.0179 10.9102 21.6582 11.0423 22.2051 11.3066C22.752 11.571 23.1758 11.9333 23.4766 12.3936C23.7819 12.8538 23.9346 13.3802 23.9346 13.9727H21.8975C21.8975 13.681 21.8359 13.4258 21.7129 13.207C21.5944 12.9837 21.4121 12.8083 21.166 12.6807C20.9245 12.5531 20.6191 12.4893 20.25 12.4893C19.8945 12.4893 19.5983 12.5439 19.3613 12.6533C19.1243 12.7581 18.9466 12.9017 18.8281 13.084C18.7096 13.2617 18.6504 13.4622 18.6504 13.6855C18.6504 13.8542 18.6914 14.0068 18.7734 14.1436C18.86 14.2803 18.9876 14.4079 19.1562 14.5264C19.3249 14.6449 19.5322 14.7565 19.7783 14.8613C20.0244 14.9661 20.3092 15.0687 20.6328 15.1689C21.1751 15.333 21.6514 15.5176 22.0615 15.7227C22.4762 15.9277 22.8226 16.1579 23.1006 16.4131C23.3786 16.6683 23.5882 16.9577 23.7295 17.2812C23.8708 17.6048 23.9414 17.9717 23.9414 18.3818C23.9414 18.8148 23.8571 19.2021 23.6885 19.5439C23.5199 19.8857 23.276 20.1751 22.957 20.4121C22.638 20.6491 22.2575 20.8291 21.8154 20.9521C21.3734 21.0752 20.8789 21.1367 20.332 21.1367C19.8398 21.1367 19.3545 21.0729 18.876 20.9453C18.3975 20.8132 17.9622 20.6149 17.5703 20.3506C17.1829 20.0863 16.873 19.749 16.6406 19.3389C16.4082 18.9287 16.292 18.4434 16.292 17.8828H18.3496C18.3496 18.1927 18.3975 18.4548 18.4932 18.6689C18.5889 18.8831 18.7233 19.0563 18.8965 19.1885C19.0742 19.3206 19.2839 19.4163 19.5254 19.4756C19.7715 19.5348 20.0404 19.5645 20.332 19.5645C20.6875 19.5645 20.9792 19.5143 21.207 19.4141C21.4395 19.3138 21.6104 19.1748 21.7197 18.9971C21.8337 18.8193 21.8906 18.6188 21.8906 18.3955Z" fill="white"/>
</svg>
